# xmcd
# Track frame offsets:
# 150
# 10130
# 22230
# 34862
# 47982
# 60667
# 70005
# 83884
# 95597
# 106787
# 118456
# 130184
# 139229
# 151224
# 163070
# 174952
# 185779
#
# Disc length: 2592 seconds
# Revision: 0
# Processed by: cddbd v1.4PL0 Copyright (c) Steve Scherf et al.
# Submitted via: VisiTrax 2.9.5.180 - For more info visit www.synapsa.com
#
DISCID=ed0a1e11
DTITLE=Tennessee Ernie Ford - Master Disc 1
DYEAR=1900
DGENRE=
TTITLE0=You Don´t Have To Be A Baby Cry
TTITLE1=Ain´t Nobody´s Business But My Own
TTITLE2=I Don´t Hurt Anymore
TTITLE3=I Been To Georgia On A Fast Train
TTITLE4=Ain´t Goin´Down In The Ground Before My Time
TTITLE5=Nine Pound Hammer
TTITLE6=Trouble In Mind
TTITLE7=Sixteen Tons
TTITLE8=Blackberry Boogie
TTITLE9=I Don`t Know
TTITLE10=I´ll Never Be Free
TTITLE11=It´s All In The Game
TTITLE12=Old Cape Cod
TTITLE13=Ocean Of Tears
TTITLE14=Blues Stay Away From Me
TTITLE15=Country Junction
TTITLE16=This Must Be The Place
EXTD=
EXTT0=
EXTT1=
EXTT2=
EXTT3=
EXTT4=
EXTT5=
EXTT6=
EXTT7=
EXTT8=
EXTT9=
EXTT10=
EXTT11=
EXTT12=
EXTT13=
EXTT14=
EXTT15=
EXTT16=
PLAYORDER=
